<?xml version="1.0" encoding="UTF-8" standalone="no"?><svg width="20" height="20" viewBox="0 0 20 20" fill="none" xmlns="http://www.w3.org/2000/svg">
<path d="M7.63105 17.3095V14.7539C7.63104 14.1039 8.16097 13.5757 8.81755 13.5713H11.2226C11.8823 13.5713 12.4171 14.1008 12.4171 14.7539V14.7539V17.3174C12.417 17.8693 12.8619 18.3204 13.4192 18.3333H15.0226C16.621 18.3333 17.9167 17.0506 17.9167 15.4682V15.4682V8.19819C17.9082 7.57568 17.6129 6.99111 17.115 6.61085L11.6315 2.23774C10.6708 1.4763 9.30521 1.4763 8.34456 2.23774L2.88506 6.61879C2.38526 6.99751 2.08953 7.58305 2.08337 8.20612V15.4682C2.08337 17.0506 3.3791 18.3333 4.97747 18.3333H6.58084C7.152 18.3333 7.61502 17.8749 7.61502 17.3095V17.3095" stroke="#A5A2B8" stroke-width="1.5" stroke-linecap="round" stroke-linejoin="round"/>
</svg>
